<svg width="31" height="32" viewBox="0 0 31 32" fill="none" xmlns="http://www.w3.org/2000/svg">
<path d="M9.70479 31.311C8.96019 31.311 8.32544 31.0405 7.80051 30.4993C7.27559 29.9581 7.01313 29.3075 7.01313 28.5475C7.01313 27.7876 7.27824 27.1397 7.80846 26.6039C8.33871 26.0682 8.97612 25.8003 9.72068 25.8003C10.4653 25.8003 11.1 26.0709 11.625 26.612C12.1499 27.1532 12.4123 27.8038 12.4123 28.5638C12.4123 29.3237 12.1472 29.9716 11.617 30.5074C11.0868 31.0432 10.4494 31.311 9.70479 31.311ZM24.7026 31.311C23.958 31.311 23.3233 31.0405 22.7983 30.4993C22.2734 29.9581 22.011 29.3075 22.011 28.5475C22.011 27.7876 22.2761 27.1397 22.8063 26.6039C23.3365 26.0682 23.974 25.8003 24.7185 25.8003C25.4631 25.8003 26.0979 26.0709 26.6228 26.612C27.1477 27.1532 27.4102 27.8038 27.4102 28.5638C27.4102 29.3237 27.1451 29.9716 26.6148 30.5074C26.0846 31.0432 25.4472 31.311 24.7026 31.311ZM7.76302 6.05332L11.8874 14.7787H22.6859L27.3727 6.05332H7.76302ZM6.63818 3.75716H28.7253C29.2993 3.75716 29.736 4.02505 30.0355 4.56082C30.335 5.09659 30.3348 5.63236 30.0348 6.16813L24.973 15.4676C24.6981 15.9523 24.3411 16.3414 23.9022 16.6348C23.4633 16.9282 22.9828 17.0749 22.4609 17.0749H11.1L9.00034 21.0549H27.4102V23.351H9.33779C8.28794 23.351 7.5318 22.9939 7.06937 22.2795C6.60693 21.5651 6.61318 20.7615 7.08811 19.8685L9.48777 15.3528L3.78859 3.03004H0.864014V0.733887H5.25088L6.63818 3.75716Z" fill="#929292"/>
</svg>
