<svg width="128" height="116" viewBox="0 0 128 116" fill="none" xmlns="http://www.w3.org/2000/svg">
<path d="M116.223 10.6827C108.003 2.80365 95.1626 -1.11585 83.4426 0.713918C75.0026 2.00376 68.1726 6.26322 64.0726 12.6824C60.0726 6.15323 53.4526 1.84378 45.1426 0.463949C33.5326 -1.44581 20.1426 2.65367 11.7726 10.6727C8.07557 14.2141 5.12848 18.4626 3.1065 23.1656C1.08453 27.8686 0.0289688 32.9301 0.00256942 38.0492C-0.0579213 43.3593 0.950233 48.6273 2.96707 53.5399C4.98391 58.4526 7.96824 62.9095 11.7426 66.6456L59.0026 113.93C59.6533 114.586 60.4275 115.106 61.2805 115.462C62.1336 115.817 63.0485 116 63.9726 116C64.8967 116 65.8116 115.817 66.6646 115.462C67.5176 115.106 68.2918 114.586 68.9426 113.93L116.233 66.6356C120.011 62.9032 123 58.449 125.022 53.5381C127.044 48.6271 128.058 43.3598 128.003 38.0492C127.974 32.9311 126.916 27.871 124.892 23.1698C122.868 18.4685 119.92 14.222 116.223 10.6827ZM112.003 62.3962L64.7326 109.69C64.639 109.79 64.526 109.87 64.4004 109.924C64.2748 109.979 64.1394 110.007 64.0026 110.007C63.8657 110.007 63.7303 109.979 63.6047 109.924C63.4792 109.87 63.3661 109.79 63.2726 109.69L16.0026 62.3962C12.7926 59.2249 10.2532 55.4406 8.53532 51.2683C6.81742 47.096 5.9561 42.621 6.00257 38.1092C6.02534 33.788 6.91705 29.5155 8.62467 25.5459C10.3323 21.5763 12.8209 17.9906 15.9426 15.0021C21.8326 9.33283 30.7226 6.00325 39.2326 6.00325C40.8874 6.00182 42.5395 6.13558 44.1726 6.4032C49.1726 7.2231 55.8426 9.72278 59.5926 16.9619C60.0143 17.7705 60.6467 18.4502 61.423 18.9289C62.1993 19.4077 63.0906 19.6677 64.0026 19.6815C64.8916 19.6837 65.7646 19.445 66.5288 18.9908C67.2929 18.5366 67.9197 17.8838 68.3426 17.1019C72.2326 9.90276 79.1626 7.44307 84.2826 6.64317C94.0526 5.12336 105.183 8.48294 111.983 15.0121C115.118 17.9926 117.62 21.5737 119.342 25.5418C121.063 29.5099 121.968 33.784 122.003 38.1092C122.049 42.621 121.188 47.096 119.47 51.2683C117.752 55.4406 115.213 59.2249 112.003 62.3962Z" fill="#373337"/>
</svg>
