<svg width="32" height="32" viewBox="0 0 32 32" fill="none" xmlns="http://www.w3.org/2000/svg">
<path d="M15.136 24.176C15.6693 25.0933 15.936 25.9787 15.936 26.832C15.936 27.024 15.9147 27.1947 15.872 27.344C15.8507 27.5147 15.8187 27.6853 15.776 27.856C15.4133 27.8133 15.0293 27.7813 14.624 27.76C14.24 27.7387 13.8347 27.728 13.408 27.728C12.896 27.728 12.3733 27.7387 11.84 27.76C11.328 27.8027 10.752 27.856 10.112 27.92C9.472 27.984 8.75733 28.0693 7.968 28.176C7.17867 28.2827 6.26133 28.4213 5.216 28.592C4.72533 28.4213 4.23467 28.08 3.744 27.568C3.25333 27.0773 2.79467 26.48 2.368 25.776C2.58133 25.3067 2.848 24.7307 3.168 24.048C3.488 23.344 3.86133 22.5013 4.288 21.52C4.71467 20.5173 5.184 19.3547 5.696 18.032C6.22933 16.688 6.79467 15.1413 7.392 13.392C7.776 12.24 8.10667 11.2267 8.384 10.352C8.66133 9.47733 8.90667 8.63467 9.12 7.824C9.35467 6.992 9.57867 6.128 9.792 5.232C10.0053 4.336 10.24 3.30133 10.496 2.128C11.3493 2.29867 12.0853 2.61867 12.704 3.088C13.344 3.536 13.952 4.18667 14.528 5.04C14.3573 5.31733 14.1333 5.76533 13.856 6.384C13.5787 7.00267 13.248 7.76 12.864 8.656C12.5013 9.53067 12.096 10.5333 11.648 11.664C11.2 12.7733 10.7307 13.968 10.24 15.248C9.77067 16.5067 9.312 17.6907 8.864 18.8C8.416 19.9093 8.01067 20.912 7.648 21.808C7.30667 22.704 7.02933 23.472 6.816 24.112C6.60267 24.752 6.496 25.232 6.496 25.552C6.83733 25.5307 7.14667 25.5093 7.424 25.488C7.70133 25.4667 7.98933 25.4347 8.288 25.392C8.58667 25.328 8.90667 25.264 9.248 25.2C9.61067 25.1147 10.0373 25.008 10.528 24.88C10.9547 24.7733 11.3493 24.688 11.712 24.624C12.0747 24.5387 12.4267 24.4747 12.768 24.432C13.1307 24.368 13.4933 24.3253 13.856 24.304C14.24 24.2613 14.6667 24.2187 15.136 24.176Z" fill="#9C4B94"/>
<path d="M30.144 13.264C30.1227 13.6693 30.048 14.096 29.92 14.544C29.8133 14.9707 29.6747 15.3653 29.504 15.728C29.3333 16.0693 29.152 16.3573 28.96 16.592C28.768 16.8267 28.5867 16.944 28.416 16.944C28.1813 16.9227 28.0427 16.7627 28 16.464C28 16.4 28.0213 16.304 28.064 16.176C28.128 16.0267 28.192 15.8667 28.256 15.696C28.32 15.5253 28.3733 15.3547 28.416 15.184C28.48 15.0133 28.512 14.864 28.512 14.736C28.512 14.4373 28.4373 14.192 28.288 14C28.16 13.7867 27.9787 13.68 27.744 13.68C26.8907 13.68 26.24 14.2133 25.792 15.28C25.344 16.3467 25.12 17.9147 25.12 19.984C25.12 20.1973 25.1307 20.3253 25.152 20.368C25.6 20.3467 25.9947 20.336 26.336 20.336C26.6987 20.3147 27.0507 20.304 27.392 20.304C27.4133 20.3467 27.424 20.432 27.424 20.56C27.424 20.752 27.3813 20.8907 27.296 20.976C26.8053 21.0827 26.4107 21.1787 26.112 21.264C25.8347 21.328 25.6213 21.392 25.472 21.456C25.3227 21.52 25.2267 21.5947 25.184 21.68C25.1627 21.744 25.152 21.84 25.152 21.968C25.152 22.1387 25.152 22.3093 25.152 22.48C25.1733 22.6507 25.184 22.864 25.184 23.12C25.184 24.912 24.6933 26.352 23.712 27.44C22.752 28.528 21.408 29.1573 19.68 29.328C19.3813 29.3067 19.072 29.2213 18.752 29.072C18.432 28.9227 18.1227 28.7307 17.824 28.496C17.5467 28.2613 17.3013 27.9947 17.088 27.696C16.8747 27.4187 16.7253 27.1307 16.64 26.832C16.64 26.0213 16.8107 25.2533 17.152 24.528C17.4933 23.7813 17.952 23.1307 18.528 22.576C19.1253 22 19.8187 21.5413 20.608 21.2C21.4187 20.8373 22.2933 20.624 23.232 20.56C23.232 20.0267 23.1787 19.504 23.072 18.992C22.9653 18.48 22.848 17.9893 22.72 17.52C22.6133 17.0293 22.5067 16.56 22.4 16.112C22.2933 15.6427 22.24 15.184 22.24 14.736C22.24 14.16 22.3573 13.5947 22.592 13.04C22.8267 12.464 23.136 11.9413 23.52 11.472C23.904 10.9813 24.352 10.5653 24.864 10.224C25.376 9.88267 25.9093 9.648 26.464 9.52C26.6987 9.584 27.008 9.776 27.392 10.096C27.7973 10.3947 28.192 10.736 28.576 11.12C28.96 11.504 29.3013 11.8987 29.6 12.304C29.8987 12.688 30.08 13.008 30.144 13.264ZM19.584 27.856C20.096 27.6427 20.576 27.3333 21.024 26.928C21.4933 26.5227 21.8987 26.064 22.24 25.552C22.5813 25.04 22.848 24.496 23.04 23.92C23.2533 23.344 23.36 22.7787 23.36 22.224C22.9333 22.288 22.464 22.4907 21.952 22.832C21.44 23.152 20.96 23.5467 20.512 24.016C20.064 24.464 19.6907 24.9333 19.392 25.424C19.0933 25.9147 18.944 26.3413 18.944 26.704C18.944 27.1733 19.1573 27.5573 19.584 27.856Z" fill="#9C4B94"/>
</svg>
