<svg width="32" height="32" viewBox="0 0 32 32" fill="none" xmlns="http://www.w3.org/2000/svg">
<path d="M15.568 20.088C15.8347 20.5467 15.968 20.9893 15.968 21.416C15.968 21.512 15.9573 21.5973 15.936 21.672C15.9253 21.7573 15.9093 21.8427 15.888 21.928C15.7067 21.9067 15.5147 21.8907 15.312 21.88C15.12 21.8693 14.9173 21.864 14.704 21.864C14.448 21.864 14.1867 21.8693 13.92 21.88C13.664 21.9013 13.376 21.928 13.056 21.96C12.736 21.992 12.3787 22.0347 11.984 22.088C11.5893 22.1413 11.1307 22.2107 10.608 22.296C10.3627 22.2107 10.1173 22.04 9.872 21.784C9.62667 21.5387 9.39733 21.24 9.184 20.888C9.29067 20.6533 9.424 20.3653 9.584 20.024C9.744 19.672 9.93067 19.2507 10.144 18.76C10.3573 18.2587 10.592 17.6773 10.848 17.016C11.1147 16.344 11.3973 15.5707 11.696 14.696C11.888 14.12 12.0533 13.6133 12.192 13.176C12.3307 12.7387 12.4533 12.3173 12.56 11.912C12.6773 11.496 12.7893 11.064 12.896 10.616C13.0027 10.168 13.12 9.65067 13.248 9.064C13.6747 9.14933 14.0427 9.30933 14.352 9.544C14.672 9.768 14.976 10.0933 15.264 10.52C15.1787 10.6587 15.0667 10.8827 14.928 11.192C14.7893 11.5013 14.624 11.88 14.432 12.328C14.2507 12.7653 14.048 13.2667 13.824 13.832C13.6 14.3867 13.3653 14.984 13.12 15.624C12.8853 16.2533 12.656 16.8453 12.432 17.4C12.208 17.9547 12.0053 18.456 11.824 18.904C11.6533 19.352 11.5147 19.736 11.408 20.056C11.3013 20.376 11.248 20.616 11.248 20.776C11.4187 20.7653 11.5733 20.7547 11.712 20.744C11.8507 20.7333 11.9947 20.7173 12.144 20.696C12.2933 20.664 12.4533 20.632 12.624 20.6C12.8053 20.5573 13.0187 20.504 13.264 20.44C13.4773 20.3867 13.6747 20.344 13.856 20.312C14.0373 20.2693 14.2133 20.2373 14.384 20.216C14.5653 20.184 14.7467 20.1627 14.928 20.152C15.12 20.1307 15.3333 20.1093 15.568 20.088Z" fill="url(#paint0_linear_127_83)"/>
<path d="M23.072 14.632C23.0613 14.8347 23.024 15.048 22.96 15.272C22.9067 15.4853 22.8373 15.6827 22.752 15.864C22.6667 16.0347 22.576 16.1787 22.48 16.296C22.384 16.4133 22.2933 16.472 22.208 16.472C22.0907 16.4613 22.0213 16.3813 22 16.232C22 16.2 22.0107 16.152 22.032 16.088C22.064 16.0133 22.096 15.9333 22.128 15.848C22.16 15.7627 22.1867 15.6773 22.208 15.592C22.24 15.5067 22.256 15.432 22.256 15.368C22.256 15.2187 22.2187 15.096 22.144 15C22.08 14.8933 21.9893 14.84 21.872 14.84C21.4453 14.84 21.12 15.1067 20.896 15.64C20.672 16.1733 20.56 16.9573 20.56 17.992C20.56 18.0987 20.5653 18.1627 20.576 18.184C20.8 18.1733 20.9973 18.168 21.168 18.168C21.3493 18.1573 21.5253 18.152 21.696 18.152C21.7067 18.1733 21.712 18.216 21.712 18.28C21.712 18.376 21.6907 18.4453 21.648 18.488C21.4027 18.5413 21.2053 18.5893 21.056 18.632C20.9173 18.664 20.8107 18.696 20.736 18.728C20.6613 18.76 20.6133 18.7973 20.592 18.84C20.5813 18.872 20.576 18.92 20.576 18.984C20.576 19.0693 20.576 19.1547 20.576 19.24C20.5867 19.3253 20.592 19.432 20.592 19.56C20.592 20.456 20.3467 21.176 19.856 21.72C19.376 22.264 18.704 22.5787 17.84 22.664C17.6907 22.6533 17.536 22.6107 17.376 22.536C17.216 22.4613 17.0613 22.3653 16.912 22.248C16.7733 22.1307 16.6507 21.9973 16.544 21.848C16.4373 21.7093 16.3627 21.5653 16.32 21.416C16.32 21.0107 16.4053 20.6267 16.576 20.264C16.7467 19.8907 16.976 19.5653 17.264 19.288C17.5627 19 17.9093 18.7707 18.304 18.6C18.7093 18.4187 19.1467 18.312 19.616 18.28C19.616 18.0133 19.5893 17.752 19.536 17.496C19.4827 17.24 19.424 16.9947 19.36 16.76C19.3067 16.5147 19.2533 16.28 19.2 16.056C19.1467 15.8213 19.12 15.592 19.12 15.368C19.12 15.08 19.1787 14.7973 19.296 14.52C19.4133 14.232 19.568 13.9707 19.76 13.736C19.952 13.4907 20.176 13.2827 20.432 13.112C20.688 12.9413 20.9547 12.824 21.232 12.76C21.3493 12.792 21.504 12.888 21.696 13.048C21.8987 13.1973 22.096 13.368 22.288 13.56C22.48 13.752 22.6507 13.9493 22.8 14.152C22.9493 14.344 23.04 14.504 23.072 14.632ZM17.792 21.928C18.048 21.8213 18.288 21.6667 18.512 21.464C18.7467 21.2613 18.9493 21.032 19.12 20.776C19.2907 20.52 19.424 20.248 19.52 19.96C19.6267 19.672 19.68 19.3893 19.68 19.112C19.4667 19.144 19.232 19.2453 18.976 19.416C18.72 19.576 18.48 19.7733 18.256 20.008C18.032 20.232 17.8453 20.4667 17.696 20.712C17.5467 20.9573 17.472 21.1707 17.472 21.352C17.472 21.5867 17.5787 21.7787 17.792 21.928Z" fill="url(#paint1_linear_127_83)"/>
<defs>
<linearGradient id="paint0_linear_127_83" x1="15" y1="4" x2="15" y2="27" gradientUnits="userSpaceOnUse">
<stop stop-color="#775473"/>
<stop offset="1" stop-color="#A26C9B"/>
</linearGradient>
<linearGradient id="paint1_linear_127_83" x1="15" y1="4" x2="15" y2="27" gradientUnits="userSpaceOnUse">
<stop stop-color="#775473"/>
<stop offset="1" stop-color="#A26C9B"/>
</linearGradient>
</defs>
</svg>
