<svg width="110" height="112" viewBox="0 0 110 112" fill="none" xmlns="http://www.w3.org/2000/svg">
<path fill-rule="evenodd" clip-rule="evenodd" d="M75.6715 85.7803C63.6001 96.0737 42.8191 99.3671 25.6189 86.4452C29.6281 80.1878 44.6173 59.0914 70.2144 48.9192L68.4756 44.5912C43.529 54.5055 28.5023 73.7097 22.9013 82.0209C18.1697 71.0502 17.2972 60.3622 20.4776 50.8859C23.4392 42.0435 29.8533 34.8975 38.5347 30.7621C51.0002 24.8278 60.1006 23.8895 69.7359 22.8984C78.9083 21.9538 88.3403 20.9845 100.352 15.6094C99.142 35.0684 93.4096 70.6463 75.6715 85.7803ZM103.032 3.84332C89.1002 11.5331 79.2242 12.5522 68.7664 13.6272C58.7622 14.6556 48.4139 15.7244 34.4817 22.3577C23.4861 27.5899 15.3488 36.6778 11.5742 47.9405C7.45864 60.2255 8.76272 73.8992 15.2019 87.6724C8.29363 96.3751 1.85449 108.427 0 112H10.6391C13.191 107.38 17.2127 100.523 21.4002 94.9552C30.6289 101.439 40.6363 104.233 50.1996 104.233C62.2647 104.233 73.62 99.8176 81.7823 92.8486C104.102 73.8091 110 28.9694 110 7.91656V0L103.032 3.84332Z" fill="#373337"/>
</svg>
