<svg width="110" height="150" viewBox="0 0 110 150" fill="none" xmlns="http://www.w3.org/2000/svg">
<path d="M54.9961 150C24.6748 150 0 125.937 0 96.3683C0 67.8549 49.872 4.06681 51.9913 1.37287C53.4218 -0.457623 56.563 -0.457623 58.001 1.37287C60.1202 4.067 110 67.8549 110 96.3683C110 125.937 85.3252 150 54.9961 150ZM54.9961 9.78007C44.1346 24.1291 7.56888 74.0994 7.56888 96.3685C7.56888 121.87 28.8453 142.619 54.9961 142.619C81.1545 142.619 102.431 121.87 102.431 96.3685C102.431 74.0994 65.8651 24.1289 54.9961 9.78007Z" fill="#373337"/>
<path d="M57.948 135.954C56.3434 135.954 54.8524 134.95 54.3377 133.377C53.7095 131.436 54.8072 129.362 56.7976 128.742C71.9507 124.033 83.607 112.319 87.9893 97.409C88.5647 95.4384 90.6688 94.2943 92.6671 94.8774C94.6729 95.4384 95.8386 97.4829 95.2631 99.439C90.192 116.733 76.666 130.322 59.0985 135.776C58.7126 135.902 58.3341 135.954 57.948 135.954Z" fill="#373337"/>
</svg>
