<svg width="32" height="34" viewBox="0 0 32 34" fill="none" xmlns="http://www.w3.org/2000/svg">
<path d="M16 0C11.6533 0 11.1107 0.0209748 9.404 0.100679C7.7 0.184578 6.54 0.465639 5.52 0.88094C4.468 1.30882 3.57467 1.88353 2.68533 2.81621C1.796 3.74889 1.24667 4.68436 0.84 5.78903C0.444 6.85874 0.174667 8.07528 0.096 9.86233C0.016 11.6522 0 12.2213 0 16.7798C0 21.3383 0.02 21.9074 0.096 23.6973C0.176 25.483 0.444 26.7009 0.84 27.7706C1.248 28.8725 1.796 29.8107 2.68533 30.7434C3.57467 31.6747 4.46667 32.2521 5.52 32.6787C6.54133 33.0926 7.70133 33.3764 9.404 33.4589C11.1107 33.5428 11.6533 33.5596 16 33.5596C20.3467 33.5596 20.8893 33.5386 22.596 33.4589C24.2987 33.375 25.46 33.0926 26.48 32.6787C27.5307 32.2508 28.4253 31.6747 29.3147 30.7434C30.2027 29.8107 30.7533 28.8767 31.16 27.7706C31.5547 26.7009 31.8253 25.483 31.904 23.6973C31.984 21.9074 32 21.3383 32 16.7798C32 12.2213 31.98 11.6522 31.904 9.86233C31.824 8.07667 31.5547 6.85735 31.16 5.78903C30.752 4.68576 30.2027 3.74889 29.3147 2.81621C28.4253 1.88353 27.5347 1.30743 26.48 0.88094C25.46 0.465639 24.2987 0.18318 22.596 0.100679C20.8893 0.0167798 20.3467 0 16 0ZM16 3.02036C20.2707 3.02036 20.78 3.04273 22.4667 3.11965C24.0267 3.19655 24.8733 3.46783 25.436 3.69995C26.1853 4.00338 26.716 4.36694 27.2787 4.95284C27.8373 5.54013 28.184 6.09806 28.4733 6.88391C28.692 7.47401 28.9533 8.36193 29.024 9.99796C29.1 11.7682 29.1173 12.2996 29.1173 16.7798C29.1173 21.26 29.0973 21.7928 29.0187 23.5617C28.9373 25.1977 28.6773 26.0856 28.4573 26.6757C28.1587 27.4615 27.8187 28.0181 27.2587 28.6082C26.7 29.194 26.16 29.5576 25.4187 29.861C24.8587 30.0904 23.9987 30.3644 22.4387 30.4386C20.74 30.5183 20.24 30.5364 15.96 30.5364C11.6787 30.5364 11.1787 30.5154 9.48133 30.433C7.92 30.3476 7.06 30.075 6.5 29.8442C5.74133 29.5311 5.22 29.1745 4.66133 28.5872C4.1 28.0013 3.74133 27.435 3.46133 26.6575C3.24133 26.0703 2.98267 25.1683 2.90133 23.5323C2.84133 21.7704 2.82 21.2264 2.82 16.7588C2.82 12.2898 2.84133 11.7445 2.90133 9.96161C2.98267 8.32558 3.24133 7.42506 3.46133 6.83777C3.74133 6.04073 4.1 5.49539 4.66133 4.9067C5.22 4.3208 5.74133 3.94325 6.5 3.651C7.06 3.41888 7.90133 3.14621 9.46133 3.06231C11.1613 2.99939 11.6613 2.97841 15.94 2.97841L16 3.02036ZM16 8.16337C11.46 8.16337 7.784 12.0227 7.784 16.7798C7.784 21.5411 11.464 25.3962 16 25.3962C20.54 25.3962 24.216 21.5369 24.216 16.7798C24.216 12.0185 20.536 8.16337 16 8.16337ZM16 22.373C13.0533 22.373 10.6667 19.8701 10.6667 16.7798C10.6667 13.6895 13.0533 11.1866 16 11.1866C18.9467 11.1866 21.3333 13.6895 21.3333 16.7798C21.3333 19.8701 18.9467 22.373 16 22.373ZM26.4613 7.82358C26.4613 8.93524 25.6 9.83716 24.5413 9.83716C23.4813 9.83716 22.6213 8.93385 22.6213 7.82358C22.6213 6.71332 23.4827 5.8114 24.5413 5.8114C25.5987 5.81001 26.4613 6.71332 26.4613 7.82358Z" fill="#6D4D69"/>
</svg>
