<svg width="207" height="78" viewBox="0 0 207 78" fill="none" xmlns="http://www.w3.org/2000/svg">
<path d="M26.272 50.3519C27.3387 52.1866 27.872 53.9572 27.872 55.6639C27.872 56.0479 27.8294 56.3892 27.744 56.6879C27.7014 57.0292 27.6374 57.3706 27.552 57.7119C26.8267 57.6266 26.0587 57.5626 25.248 57.5199C24.48 57.4772 23.6694 57.4559 22.816 57.4559C21.792 57.4559 20.7467 57.4772 19.68 57.5199C18.656 57.6052 17.504 57.7119 16.224 57.8399C14.944 57.9679 13.5147 58.1386 11.936 58.3519C10.3574 58.5652 8.52269 58.8426 6.43202 59.1839C5.45069 58.8426 4.46936 58.1599 3.48802 57.1359C2.50669 56.1546 1.58936 54.9599 0.736023 53.5519C1.16269 52.6132 1.69602 51.4612 2.33602 50.0959C2.97602 48.6879 3.72269 47.0026 4.57602 45.0399C5.42936 43.0346 6.36802 40.7092 7.39202 38.0639C8.45869 35.3759 9.58936 32.2826 10.784 28.7839C11.552 26.4799 12.2134 24.4532 12.768 22.7039C13.3227 20.9546 13.8134 19.2692 14.24 17.6479C14.7094 15.9839 15.1574 14.2559 15.584 12.4639C16.0107 10.6719 16.48 8.60255 16.992 6.25588C18.6987 6.59722 20.1707 7.23722 21.408 8.17588C22.688 9.07188 23.904 10.3732 25.056 12.0799C24.7147 12.6346 24.2667 13.5306 23.712 14.7679C23.1574 16.0052 22.496 17.5199 21.728 19.3119C21.0027 21.0612 20.192 23.0666 19.296 25.3279C18.4 27.5466 17.4614 29.9359 16.48 32.4959C15.5414 35.0132 14.624 37.3812 13.728 39.5999C12.832 41.8186 12.0214 43.8239 11.296 45.6159C10.6134 47.4079 10.0587 48.9439 9.63202 50.2239C9.20536 51.5039 8.99202 52.4639 8.99202 53.1039C9.67469 53.0612 10.2934 53.0186 10.848 52.9759C11.4027 52.9332 11.9787 52.8692 12.576 52.7839C13.1734 52.6559 13.8134 52.5279 14.496 52.3999C15.2214 52.2292 16.0747 52.0159 17.056 51.7599C17.9094 51.5466 18.6987 51.3759 19.424 51.2479C20.1494 51.0772 20.8534 50.9492 21.536 50.8639C22.2614 50.7359 22.9867 50.6506 23.712 50.6079C24.48 50.5226 25.3334 50.4372 26.272 50.3519Z" fill="#9C4B94"/>
<path d="M31.647 49.7119C31.647 49.3279 31.6684 48.8586 31.711 48.3039C31.7964 47.7066 31.9244 46.9386 32.095 45.9999C32.2657 45.0186 32.479 43.8452 32.735 42.4799C33.0337 41.1146 33.3964 39.4719 33.823 37.5519C33.9084 37.1252 34.1004 36.4425 34.399 35.5039C34.6977 34.5652 35.0817 33.5839 35.551 32.5599C36.063 31.4932 36.6604 30.4692 37.343 29.4879C38.0684 28.5066 38.9217 27.7812 39.903 27.3119C40.6284 27.4826 41.5884 27.9306 42.783 28.6559C43.9777 29.3386 45.0017 30.2986 45.855 31.5359C44.8737 32.6452 44.0417 33.7546 43.359 34.8639C42.719 35.9732 42.1217 37.1252 41.567 38.3199C41.055 39.5146 40.5644 40.7519 40.095 42.0319C39.6684 43.3119 39.1777 44.6559 38.623 46.0639C38.1537 47.2586 37.727 48.4959 37.343 49.7759C36.959 51.0132 36.7457 52.1012 36.703 53.0399C36.703 53.8079 36.6817 54.3412 36.639 54.6399C36.639 54.9812 36.5324 55.1519 36.319 55.1519C36.1484 55.1519 35.807 55.0452 35.295 54.8319C34.783 54.6186 34.2497 54.2986 33.695 53.8719C33.183 53.4026 32.7137 52.8266 32.287 52.1439C31.8604 51.4612 31.647 50.6506 31.647 49.7119ZM43.871 21.9359C43.871 21.6799 43.935 21.2959 44.063 20.7839C43.8497 20.5705 43.6577 20.2505 43.487 19.8239C43.359 19.3972 43.295 19.0132 43.295 18.6719C43.295 18.2879 43.3377 17.7759 43.423 17.1359C43.551 16.4532 43.7004 15.7279 43.871 14.9599C44.0417 14.1919 44.255 13.4026 44.511 12.5919C44.767 11.7385 45.023 10.9705 45.279 10.2879C45.791 10.2879 46.4097 10.4372 47.135 10.7359C47.903 10.9919 48.671 11.3546 49.439 11.8239C50.207 12.2505 50.911 12.7412 51.551 13.2959C52.191 13.8079 52.6817 14.2986 53.023 14.7679C52.5537 15.2372 51.935 15.8985 51.167 16.7519C50.399 17.5626 49.6524 18.4372 48.927 19.3759C48.2017 20.2719 47.5404 21.1252 46.943 21.9359C46.3457 22.7466 45.9617 23.3226 45.791 23.6639C45.279 23.5786 44.831 23.3652 44.447 23.0239C44.063 22.6399 43.871 22.2772 43.871 21.9359Z" fill="#9C4B94"/>
<path d="M42.036 75.1839C41.4387 75.0132 41.0974 74.3732 41.012 73.2639C40.8414 72.7092 40.7134 72.0479 40.628 71.2799C40.5854 70.5119 40.564 69.6372 40.564 68.6559C40.564 67.7599 40.7134 66.5226 41.012 64.9439C41.3107 63.4079 41.716 61.6586 42.228 59.6959C42.7827 57.7332 43.444 55.6212 44.212 53.3599C44.98 51.0559 45.8334 48.7306 46.772 46.3839C47.924 43.4399 48.9267 40.9012 49.78 38.7679C50.6334 36.5919 51.3374 34.7146 51.892 33.1359C52.4894 31.5572 52.9587 30.2559 53.3 29.2319C53.684 28.2079 53.9827 27.3332 54.196 26.6079C54.3667 26.0959 54.6227 25.4772 54.964 24.7519C55.3054 24.0266 55.6894 23.3012 56.116 22.5759C56.5854 21.8079 57.0547 21.1039 57.524 20.4639C57.9934 19.7812 58.42 19.2692 58.804 18.9279C60.2974 19.1412 61.7054 19.5252 63.028 20.0799C64.3507 20.6346 65.1614 21.1679 65.46 21.6799C64.8627 22.2346 64.18 23.1092 63.412 24.3039C62.644 25.4559 61.8974 26.7359 61.172 28.1439C60.4467 29.5092 59.7854 30.9172 59.188 32.3679C58.5907 33.8186 58.1427 35.0986 57.844 36.2079C58.2707 35.4826 58.8254 34.6932 59.508 33.8399C60.1907 32.9865 61.236 31.8132 62.644 30.3199C64.2227 28.6986 65.6947 27.4612 67.06 26.6079C68.468 25.7119 69.684 25.2639 70.708 25.2639C72.3294 25.2639 73.652 25.7119 74.676 26.6079C75.7427 27.5039 76.276 28.6559 76.276 30.0639C76.276 33.1359 75.764 36.1866 74.74 39.2159C73.716 42.2026 72.244 44.9119 70.324 47.3439C69.5987 48.2826 68.7454 49.1786 67.764 50.0319C66.7827 50.8852 65.7587 51.6532 64.692 52.3359C63.6254 52.9759 62.58 53.4879 61.556 53.8719C60.532 54.2559 59.6147 54.4479 58.804 54.4479C58.036 54.4479 57.3534 54.2986 56.756 53.9999C56.2014 53.6586 55.8174 53.2532 55.604 52.7839C57.268 51.8026 58.8894 50.4372 60.468 48.6879C62.0467 46.9386 63.4974 44.9332 64.82 42.6719C66.1854 40.3679 67.3587 37.8932 68.34 35.2479C69.364 32.6026 70.132 29.9146 70.644 27.1839C69.0227 28.0372 67.5507 28.9759 66.228 29.9999C64.948 30.9812 63.668 32.2826 62.388 33.9039C60.852 35.7812 59.636 37.2959 58.74 38.4479C57.844 39.5999 57.0974 40.5812 56.5 41.3919C55.9454 42.2026 55.476 42.9706 55.092 43.6959C54.7507 44.3786 54.3667 45.2319 53.94 46.2559C53.3427 47.6212 52.6387 49.4346 51.828 51.6959C51.06 53.9146 50.2494 56.4106 49.396 59.1839C48.5854 61.9572 47.7534 64.9012 46.9 68.0159C46.0894 71.1732 45.3 74.3092 44.532 77.4239C44.0627 77.3386 43.6574 76.9972 43.316 76.3999C42.9747 76.0159 42.7187 75.7386 42.548 75.5679C42.42 75.3972 42.2494 75.2692 42.036 75.1839Z" fill="#9C4B94"/>
<path d="M100.351 28.5279C100.308 29.3386 100.159 30.1919 99.9025 31.0879C99.6892 31.9412 99.4119 32.7306 99.0705 33.4559C98.7292 34.1386 98.3665 34.7146 97.9825 35.1839C97.5985 35.6532 97.2359 35.8879 96.8945 35.8879C96.4252 35.8452 96.1479 35.5252 96.0625 34.9279C96.0625 34.7999 96.1052 34.6079 96.1905 34.3519C96.3185 34.0532 96.4465 33.7332 96.5745 33.3919C96.7025 33.0506 96.8092 32.7092 96.8945 32.3679C97.0225 32.0266 97.0865 31.7279 97.0865 31.4719C97.0865 30.8746 96.9372 30.3839 96.6385 29.9999C96.3825 29.5732 96.0199 29.3599 95.5505 29.3599C93.8439 29.3599 92.5425 30.4266 91.6465 32.5599C90.7505 34.6932 90.3025 37.8292 90.3025 41.9679C90.3025 42.3946 90.3239 42.6506 90.3665 42.7359C91.2625 42.6932 92.0519 42.6719 92.7345 42.6719C93.4599 42.6292 94.1639 42.6079 94.8465 42.6079C94.8892 42.6932 94.9105 42.8639 94.9105 43.1199C94.9105 43.5039 94.8252 43.7812 94.6545 43.9519C93.6732 44.1652 92.8839 44.3572 92.2865 44.5279C91.7319 44.6559 91.3052 44.7839 91.0065 44.9119C90.7079 45.0399 90.5159 45.1892 90.4305 45.3599C90.3879 45.4879 90.3665 45.6799 90.3665 45.9359C90.3665 46.2772 90.3665 46.6186 90.3665 46.9599C90.4092 47.3012 90.4305 47.7279 90.4305 48.2399C90.4305 51.8239 89.4492 54.7039 87.4865 56.8799C85.5665 59.0559 82.8785 60.3146 79.4225 60.6559C78.8252 60.6132 78.2065 60.4426 77.5665 60.1439C76.9265 59.8452 76.3079 59.4612 75.7105 58.9919C75.1559 58.5226 74.6652 57.9892 74.2385 57.3919C73.8119 56.8372 73.5132 56.2612 73.3425 55.6639C73.3425 54.0426 73.6839 52.5066 74.3665 51.0559C75.0492 49.5626 75.9665 48.2612 77.1185 47.1519C78.3132 45.9999 79.6999 45.0826 81.2785 44.3999C82.8999 43.6746 84.6492 43.2479 86.5265 43.1199C86.5265 42.0532 86.4199 41.0079 86.2065 39.9839C85.9932 38.9599 85.7585 37.9786 85.5025 37.0399C85.2892 36.0586 85.0759 35.1199 84.8625 34.2239C84.6492 33.2852 84.5425 32.3679 84.5425 31.4719C84.5425 30.3199 84.7772 29.1892 85.2465 28.0799C85.7159 26.9279 86.3345 25.8826 87.1025 24.9439C87.8705 23.9626 88.7665 23.1306 89.7905 22.4479C90.8145 21.7652 91.8812 21.2959 92.9905 21.0399C93.4599 21.1679 94.0785 21.5519 94.8465 22.1919C95.6572 22.7892 96.4465 23.4719 97.2145 24.2399C97.9825 25.0079 98.6652 25.7972 99.2625 26.6079C99.8599 27.3759 100.223 28.0159 100.351 28.5279ZM79.2305 57.7119C80.2545 57.2852 81.2145 56.6666 82.1105 55.8559C83.0492 55.0452 83.8599 54.1279 84.5425 53.1039C85.2252 52.0799 85.7585 50.9919 86.1425 49.8399C86.5692 48.6879 86.7825 47.5572 86.7825 46.4479C85.9292 46.5759 84.9905 46.9812 83.9665 47.6639C82.9425 48.3039 81.9825 49.0932 81.0865 50.0319C80.1905 50.9279 79.4439 51.8666 78.8465 52.8479C78.2492 53.8292 77.9505 54.6826 77.9505 55.4079C77.9505 56.3466 78.3772 57.1146 79.2305 57.7119Z" fill="#9C4B94"/>
<path d="M100.332 52.9119C100.332 51.4186 100.481 49.6692 100.78 47.6639C101.078 45.6159 101.505 43.4399 102.06 41.1359C102.657 38.8319 103.34 36.4212 104.108 33.9039C104.918 31.3866 105.814 28.8692 106.796 26.3519C107.649 24.0906 108.63 21.8079 109.74 19.5039C110.892 17.1999 112.129 14.9385 113.452 12.7199C114.774 10.5012 116.14 8.38922 117.548 6.38388C118.998 4.37855 120.449 2.54388 121.9 0.879883C122.582 0.879883 123.308 0.965216 124.076 1.13588C124.886 1.30655 125.654 1.54122 126.38 1.83988C127.148 2.09588 127.83 2.41588 128.428 2.79988C129.068 3.18388 129.58 3.56788 129.964 3.95188C126.764 7.23722 123.884 10.5652 121.324 13.9359C118.764 17.2639 116.737 20.3999 115.244 23.3439C114.433 24.9652 113.686 26.4799 113.004 27.8879C112.364 29.2959 111.766 30.7039 111.212 32.1119C110.657 33.4772 110.145 34.8639 109.676 36.2719C109.249 37.6372 108.844 39.0879 108.46 40.6239C116.652 30.1706 122.732 24.9439 126.7 24.9439C127.809 24.9439 129.004 25.3066 130.284 26.0319C131.564 26.7572 132.694 27.7386 133.676 28.9759C132.353 30.4266 130.988 32.1759 129.58 34.2239C128.172 36.2719 126.87 38.3412 125.676 40.4319C124.524 42.4799 123.564 44.3999 122.796 46.1919C122.07 47.9412 121.708 49.2426 121.708 50.0959C121.708 50.5226 121.772 50.8212 121.9 50.9919C122.028 51.1199 122.305 51.1839 122.732 51.1839C123.372 51.1839 123.884 51.0986 124.268 50.9279C124.652 50.7572 124.886 50.6719 124.972 50.6719C125.185 51.0132 125.313 51.2479 125.356 51.3759C125.398 51.5039 125.42 51.6106 125.42 51.6959C125.42 51.8666 125.164 52.1226 124.652 52.4639C124.14 52.7626 123.521 53.0826 122.796 53.4239C122.113 53.7226 121.43 53.9999 120.748 54.2559C120.065 54.5119 119.553 54.6399 119.212 54.6399C118.785 54.6399 118.358 54.5119 117.932 54.2559C117.505 54.0426 117.121 53.7439 116.78 53.3599C116.481 52.9759 116.225 52.5492 116.012 52.0799C115.841 51.6106 115.756 51.1199 115.756 50.6079C115.756 49.9679 115.926 49.0292 116.268 47.7919C116.652 46.5119 117.164 45.0399 117.804 43.3759C118.444 41.6692 119.212 39.8132 120.108 37.8079C121.004 35.8026 121.964 33.7546 122.988 31.6639C122.988 31.4932 122.902 31.4079 122.732 31.4079C122.604 31.4079 122.262 31.5786 121.708 31.9199C121.196 32.2612 120.705 32.6026 120.236 32.9439C118.7 34.0959 117.142 35.5252 115.564 37.2319C114.028 38.8959 112.513 40.7306 111.02 42.7359C109.569 44.7412 108.182 46.8746 106.86 49.1359C105.58 51.3546 104.47 53.5946 103.532 55.8559C103.404 56.1546 103.212 56.4319 102.956 56.6879C102.7 56.9439 102.486 57.0719 102.316 57.0719C102.188 57.0719 101.996 56.9226 101.74 56.6239C101.526 56.3252 101.313 55.9412 101.1 55.4719C100.929 55.0452 100.758 54.5972 100.588 54.1279C100.417 53.6586 100.332 53.2532 100.332 52.9119Z" fill="#9C4B94"/>
<path d="M133.522 49.7119C133.522 49.3279 133.543 48.8586 133.586 48.3039C133.671 47.7066 133.799 46.9386 133.97 45.9999C134.141 45.0186 134.354 43.8452 134.61 42.4799C134.909 41.1146 135.271 39.4719 135.698 37.5519C135.783 37.1252 135.975 36.4425 136.274 35.5039C136.573 34.5652 136.957 33.5839 137.426 32.5599C137.938 31.4932 138.535 30.4692 139.218 29.4879C139.943 28.5066 140.797 27.7812 141.778 27.3119C142.503 27.4826 143.463 27.9306 144.658 28.6559C145.853 29.3386 146.877 30.2986 147.73 31.5359C146.749 32.6452 145.917 33.7546 145.234 34.8639C144.594 35.9732 143.997 37.1252 143.442 38.3199C142.93 39.5146 142.439 40.7519 141.97 42.0319C141.543 43.3119 141.053 44.6559 140.498 46.0639C140.029 47.2586 139.602 48.4959 139.218 49.7759C138.834 51.0132 138.621 52.1012 138.578 53.0399C138.578 53.8079 138.557 54.3412 138.514 54.6399C138.514 54.9812 138.407 55.1519 138.194 55.1519C138.023 55.1519 137.682 55.0452 137.17 54.8319C136.658 54.6186 136.125 54.2986 135.57 53.8719C135.058 53.4026 134.589 52.8266 134.162 52.1439C133.735 51.4612 133.522 50.6506 133.522 49.7119ZM145.746 21.9359C145.746 21.6799 145.81 21.2959 145.938 20.7839C145.725 20.5705 145.533 20.2505 145.362 19.8239C145.234 19.3972 145.17 19.0132 145.17 18.6719C145.17 18.2879 145.213 17.7759 145.298 17.1359C145.426 16.4532 145.575 15.7279 145.746 14.9599C145.917 14.1919 146.13 13.4026 146.386 12.5919C146.642 11.7385 146.898 10.9705 147.154 10.2879C147.666 10.2879 148.285 10.4372 149.01 10.7359C149.778 10.9919 150.546 11.3546 151.314 11.8239C152.082 12.2505 152.786 12.7412 153.426 13.2959C154.066 13.8079 154.557 14.2986 154.898 14.7679C154.429 15.2372 153.81 15.8985 153.042 16.7519C152.274 17.5626 151.527 18.4372 150.802 19.3759C150.077 20.2719 149.415 21.1252 148.818 21.9359C148.221 22.7466 147.837 23.3226 147.666 23.6639C147.154 23.5786 146.706 23.3652 146.322 23.0239C145.938 22.6399 145.746 22.2772 145.746 21.9359Z" fill="#9C4B94"/>
<path d="M158.951 22.9599C160.06 23.3012 161.106 24.0692 162.087 25.2639C163.068 26.4159 163.794 27.6959 164.263 29.1039C163.794 30.2559 163.068 31.6426 162.087 33.2639C161.106 34.8852 160.124 36.5492 159.143 38.2559C158.162 39.9199 157.266 41.5199 156.455 43.0559C155.687 44.5492 155.239 45.7865 155.111 46.7679C155.794 46.0425 156.54 45.2106 157.351 44.2719C158.204 43.2906 159.015 42.3306 159.783 41.3919C160.594 40.4106 161.34 39.5359 162.023 38.7679C162.706 37.9572 163.239 37.3599 163.623 36.9759C164.434 36.1225 165.394 35.1412 166.503 34.0319C167.612 32.8799 168.764 31.8132 169.959 30.8319C171.196 29.8079 172.434 28.9546 173.671 28.2719C174.908 27.5466 176.039 27.1839 177.063 27.1839C178.172 27.1839 179.09 27.5679 179.815 28.3359C180.583 29.0612 181.18 29.8292 181.607 30.6399C181.607 30.7252 181.436 30.8532 181.095 31.0239C180.796 31.1519 180.348 31.5572 179.751 32.2399C179.154 33.0079 178.471 34.0746 177.703 35.4399C176.978 36.7626 176.252 38.2132 175.527 39.7919C174.844 41.3279 174.268 42.9066 173.799 44.5279C173.33 46.1492 173.095 47.6212 173.095 48.9439C173.095 50.0106 173.223 50.6932 173.479 50.9919C173.778 51.2906 174.183 51.4399 174.695 51.4399C175.164 51.4399 175.655 51.3332 176.167 51.1199C176.679 50.9066 177.084 50.7999 177.383 50.7999C177.554 50.8852 177.682 51.0772 177.767 51.3759C177.895 51.6319 177.959 51.8666 177.959 52.0799C177.618 52.3786 177.212 52.6772 176.743 52.9759C176.274 53.2746 175.783 53.5519 175.271 53.8079C174.759 54.0639 174.247 54.2772 173.735 54.4479C173.266 54.6186 172.839 54.7039 172.455 54.7039C171.218 54.7039 170.194 54.5119 169.383 54.1279C168.615 53.7866 167.996 53.3172 167.527 52.7199C167.1 52.1226 166.802 51.4186 166.631 50.6079C166.46 49.7546 166.375 48.8586 166.375 47.9199C166.375 47.4079 166.418 46.8319 166.503 46.1919C166.588 45.5519 166.759 44.8052 167.015 43.9519C167.271 43.0559 167.634 42.0106 168.103 40.8159C168.572 39.5786 169.17 38.1066 169.895 36.3999C169.81 36.3999 169.234 36.6985 168.167 37.2959C167.1 37.8932 165.948 38.8106 164.711 40.0479C162.706 41.9679 160.892 43.8666 159.271 45.7439C157.692 47.6212 156.071 49.7119 154.407 52.0159C153.468 53.3386 152.636 54.4479 151.911 55.3439C151.228 56.2826 150.631 56.9012 150.119 57.1999C149.223 56.6879 148.562 55.9626 148.135 55.0239C147.708 54.1279 147.388 53.1892 147.175 52.2079C147.175 51.3972 147.282 50.3732 147.495 49.1359C147.751 47.8986 148.071 46.5332 148.455 45.0399C148.882 43.5039 149.394 41.9039 149.991 40.2399C150.588 38.5759 151.25 36.9119 151.975 35.2479C153.596 31.4932 155.068 28.5492 156.391 26.4159C157.756 24.2826 158.61 23.1306 158.951 22.9599Z" fill="#9C4B94"/>
<path d="M206.058 27.5039C205.887 30.1492 205.418 32.4319 204.65 34.3519C203.882 36.2292 202.772 37.8932 201.322 39.3439C199.914 40.7519 198.186 42.0319 196.138 43.1839C194.09 44.3359 191.7 45.4452 188.97 46.5119C188.97 46.7679 188.948 47.0452 188.906 47.3439C188.906 47.5999 188.906 47.8772 188.906 48.1759C188.906 48.7306 188.948 49.3066 189.034 49.9039C189.119 50.5012 189.268 51.0559 189.482 51.5679C189.695 52.0799 189.994 52.5066 190.378 52.8479C190.762 53.1466 191.252 53.2959 191.85 53.2959C193.002 53.2959 194.132 53.0399 195.242 52.5279C196.351 52.0159 197.396 51.3972 198.378 50.6719C199.402 49.9039 200.34 49.0932 201.194 48.2399C202.09 47.3439 202.879 46.5332 203.562 45.8079C203.988 46.1919 204.351 46.5546 204.65 46.8959C202.73 49.4559 200.618 51.5892 198.314 53.2959C196.052 54.9599 193.898 56.0266 191.85 56.4959C188.906 56.1546 186.602 55.0879 184.938 53.2959C183.316 51.4612 182.506 49.2639 182.506 46.7039C182.506 44.9546 182.74 43.1839 183.21 41.3919C183.722 39.5572 184.404 37.8079 185.258 36.1439C186.154 34.4372 187.178 32.8372 188.33 31.3439C189.524 29.8506 190.783 28.5492 192.106 27.4399C193.471 26.3306 194.858 25.4559 196.266 24.8159C197.716 24.1759 199.146 23.8559 200.554 23.8559C202.516 24.1119 204.351 25.3279 206.058 27.5039ZM201.642 29.6159C200.49 29.7866 199.295 30.2559 198.058 31.0239C196.82 31.7919 195.647 32.8159 194.538 34.0959C193.471 35.3759 192.49 36.8692 191.594 38.5759C190.698 40.2826 189.994 42.1172 189.482 44.0799C192.895 42.3732 195.732 40.2826 197.994 37.8079C200.255 35.2906 201.471 32.5599 201.642 29.6159Z" fill="#9C4B94"/>
</svg>
