<svg width="28" height="19" viewBox="0 0 28 19" fill="none" xmlns="http://www.w3.org/2000/svg">
<path d="M13.9275 14.6875C15.4042 14.6875 16.6582 14.1706 17.6895 13.1369C18.7207 12.1033 19.2363 10.848 19.2363 9.37131C19.2363 7.8946 18.7195 6.64062 17.6858 5.60938C16.6521 4.57812 15.3969 4.0625 13.9201 4.0625C12.4434 4.0625 11.1895 4.57935 10.1582 5.61306C9.12695 6.64675 8.61133 7.90196 8.61133 9.37869C8.61133 10.8554 9.12818 12.1094 10.1619 13.1406C11.1956 14.1719 12.4508 14.6875 13.9275 14.6875ZM13.9165 12.875C12.9422 12.875 12.1165 12.534 11.4395 11.852C10.7624 11.17 10.4238 10.3419 10.4238 9.36766C10.4238 8.39339 10.7648 7.56771 11.4468 6.89062C12.1288 6.21354 12.9569 5.875 13.9312 5.875C14.9054 5.875 15.7311 6.21599 16.4082 6.89797C17.0853 7.57997 17.4238 8.40809 17.4238 9.38234C17.4238 10.3566 17.0828 11.1823 16.4009 11.8594C15.7189 12.5365 14.8907 12.875 13.9165 12.875ZM13.9238 18.75C10.8822 18.75 8.13216 17.8854 5.67383 16.1562C3.21549 14.4271 1.38216 12.1667 0.173828 9.375C1.38216 6.58333 3.21549 4.32292 5.67383 2.59375C8.13216 0.864583 10.8822 0 13.9238 0C16.9655 0 19.7155 0.864583 22.1738 2.59375C24.6322 4.32292 26.4655 6.58333 27.6738 9.375C26.4655 12.1667 24.6322 14.4271 22.1738 16.1562C19.7155 17.8854 16.9655 18.75 13.9238 18.75ZM13.9185 16.875C16.4429 16.875 18.7624 16.1927 20.877 14.8281C22.9915 13.4635 24.6009 11.6458 25.7051 9.375C24.6009 7.10417 22.9933 5.28646 20.8822 3.92188C18.7712 2.55729 16.4534 1.875 13.9291 1.875C11.4048 1.875 9.08529 2.55729 6.9707 3.92188C4.85612 5.28646 3.23633 7.10417 2.11133 9.375C3.23633 11.6458 4.85436 13.4635 6.96542 14.8281C9.0765 16.1927 11.3942 16.875 13.9185 16.875Z" fill="#6D4D69"/>
</svg>
