<svg width="20" height="26" viewBox="0 0 20 26" fill="none" xmlns="http://www.w3.org/2000/svg">
<path d="M1.875 25.5C1.375 25.5 0.9375 25.3125 0.5625 24.9375C0.1875 24.5625 0 24.125 0 23.625V7.375C0 6.875 0.1875 6.4375 0.5625 6.0625C0.9375 5.6875 1.375 5.5 1.875 5.5H5.3125V5.1875C5.3125 3.875 5.76562 2.76562 6.67188 1.85938C7.57812 0.953125 8.6875 0.5 10 0.5C11.3125 0.5 12.4219 0.953125 13.3281 1.85938C14.2344 2.76562 14.6875 3.875 14.6875 5.1875V5.5H18.125C18.625 5.5 19.0625 5.6875 19.4375 6.0625C19.8125 6.4375 20 6.875 20 7.375V23.625C20 24.125 19.8125 24.5625 19.4375 24.9375C19.0625 25.3125 18.625 25.5 18.125 25.5H1.875ZM1.875 23.625H18.125V7.375H14.6875V10.1875C14.6875 10.4531 14.5971 10.6758 14.4164 10.8555C14.2357 11.0352 14.0117 11.125 13.7445 11.125C13.4773 11.125 13.2552 11.0352 13.0781 10.8555C12.901 10.6758 12.8125 10.4531 12.8125 10.1875V7.375H7.1875V10.1875C7.1875 10.4531 7.09714 10.6758 6.91641 10.8555C6.73566 11.0352 6.5117 11.125 6.24453 11.125C5.97734 11.125 5.75521 11.0352 5.57812 10.8555C5.40104 10.6758 5.3125 10.4531 5.3125 10.1875V7.375H1.875V23.625ZM7.1875 5.5H12.8125V5.1875C12.8125 4.39583 12.5417 3.72917 12 3.1875C11.4583 2.64583 10.7917 2.375 10 2.375C9.20833 2.375 8.54167 2.64583 8 3.1875C7.45833 3.72917 7.1875 4.39583 7.1875 5.1875V5.5Z" fill="#553C52"/>
</svg>
