<svg width="31" height="31" viewBox="0 0 31 31" fill="none" xmlns="http://www.w3.org/2000/svg">
<path d="M6.01937 24.021C7.55062 22.921 9.06972 22.0772 10.5767 21.4897C12.0836 20.9022 13.6999 20.6085 15.4256 20.6085C17.1513 20.6085 18.7737 20.9022 20.2928 21.4897C21.8119 22.0772 23.3371 22.921 24.8683 24.021C25.9378 22.671 26.6973 21.3085 27.147 19.9335C27.5966 18.5585 27.8215 17.1085 27.8215 15.5835C27.8215 11.9585 26.6366 8.92725 24.2668 6.48975C21.897 4.05225 18.9499 2.8335 15.4256 2.8335C11.9013 2.8335 8.95426 4.05225 6.58447 6.48975C4.21468 8.92725 3.02979 11.9585 3.02979 15.5835C3.02979 17.1085 3.26069 18.5585 3.72249 19.9335C4.1843 21.3085 4.94992 22.671 6.01937 24.021ZM15.4188 16.7085C14.0136 16.7085 12.831 16.2124 11.8709 15.2203C10.9109 14.2281 10.4308 13.0094 10.4308 11.564C10.4308 10.1187 10.9131 8.90225 11.8777 7.91475C12.8423 6.92725 14.0272 6.4335 15.4324 6.4335C16.8376 6.4335 18.0202 6.92957 18.9803 7.92172C19.9404 8.91387 20.4204 10.1326 20.4204 11.578C20.4204 13.0233 19.9381 14.2397 18.9735 15.2272C18.0089 16.2147 16.824 16.7085 15.4188 16.7085ZM15.4427 30.5835C13.4382 30.5835 11.5489 30.1897 9.77458 29.4022C8.00027 28.6147 6.45079 27.5397 5.12614 26.1772C3.80149 24.8147 2.75635 23.2239 1.99072 21.4048C1.2251 19.5856 0.842285 17.6419 0.842285 15.5735C0.842285 13.5052 1.2251 11.5647 1.99072 9.75225C2.75635 7.93975 3.80149 6.35225 5.12614 4.98975C6.45079 3.62725 7.99743 2.55225 9.76604 1.76475C11.5347 0.977246 13.4244 0.583496 15.4353 0.583496C17.4462 0.583496 19.3327 0.977246 21.0949 1.76475C22.857 2.55225 24.4004 3.62725 25.7251 4.98975C27.0497 6.35225 28.0949 7.94015 28.8605 9.75345C29.6261 11.5667 30.009 13.5042 30.009 15.5659C30.009 17.6276 29.6261 19.571 28.8605 21.396C28.0949 23.221 27.0497 24.8147 25.7251 26.1772C24.4004 27.5397 22.8567 28.6147 21.0937 29.4022C19.3308 30.1897 17.4471 30.5835 15.4427 30.5835ZM15.4256 28.3335C16.7624 28.3335 18.0688 28.1335 19.3449 27.7335C20.6209 27.3335 21.8787 26.6335 23.1183 25.6335C21.8787 24.7335 20.6149 24.046 19.3267 23.571C18.0385 23.096 16.7381 22.8585 15.4256 22.8585C14.1131 22.8585 12.8128 23.096 11.5246 23.571C10.2364 24.046 8.97249 24.7335 7.73291 25.6335C8.97249 26.6335 10.2303 27.3335 11.5063 27.7335C12.7824 28.1335 14.0888 28.3335 15.4256 28.3335ZM15.4256 14.4585C16.252 14.4585 16.9265 14.1897 17.4491 13.6522C17.9716 13.1147 18.2329 12.421 18.2329 11.571C18.2329 10.721 17.9716 10.0272 17.4491 9.48975C16.9265 8.95225 16.252 8.6835 15.4256 8.6835C14.5992 8.6835 13.9247 8.95225 13.4022 9.48975C12.8796 10.0272 12.6183 10.721 12.6183 11.571C12.6183 12.421 12.8796 13.1147 13.4022 13.6522C13.9247 14.1897 14.5992 14.4585 15.4256 14.4585Z" fill="#929292"/>
</svg>
