<svg width="32" height="24" viewBox="0 0 32 24" fill="none" xmlns="http://www.w3.org/2000/svg">
<path d="M31.3307 3.95492C31.1499 3.24077 30.7934 2.58895 30.2968 2.06476C29.8003 1.54057 29.1811 1.1624 28.5013 0.96812C26.0067 0.261963 16 0.261963 16 0.261963C16 0.261963 5.99333 0.261963 3.49733 0.96812C2.81788 1.16274 2.19906 1.54106 1.70277 2.0652C1.20648 2.58936 0.850122 3.241 0.669333 3.95492C0 6.58935 0 12.0847 0 12.0847C0 12.0847 0 17.5801 0.669333 20.2146C0.850115 20.9287 1.20663 21.5805 1.70319 22.1047C2.19974 22.6289 2.8189 23.007 3.49867 23.2014C5.99333 23.9075 16 23.9075 16 23.9075C16 23.9075 26.0067 23.9075 28.5027 23.2014C29.1825 23.0072 29.8017 22.6291 30.2983 22.1049C30.7949 21.5806 31.1513 20.9287 31.332 20.2146C32 17.5801 32 12.0847 32 12.0847C32 12.0847 32 6.58935 31.3307 3.95492ZM12.7267 17.0739V7.09558L21.0907 12.0847L12.7267 17.0739Z" fill="#6D4D69"/>
</svg>
